<?xml version="1.0" encoding="UTF-8" standalone="no"?>
<!DOCTYPE svg PUBLIC "-//W3C//DTD SVG 1.1//EN"
 "http://www.w3.org/Graphics/SVG/1.1/DTD/svg11.dtd">
<!-- Generated by graphviz version 2.47.0 (20210316.0004)
 -->
<!-- Title: dependencies Pages: 1 -->
<svg width="608pt" height="284pt"
 viewBox="0.00 0.00 608.00 284.00" xmlns="http://www.w3.org/2000/svg" xmlns:xlink="http://www.w3.org/1999/xlink">
<g id="graph0" class="graph" transform="scale(1 1) rotate(0) translate(4 280)">
<title>dependencies</title>
<polygon fill="white" stroke="transparent" points="-4,4 -4,-280 604,-280 604,4 -4,4"/>
<text text-anchor="start" x="279.01" y="-42.4" font-family="Times-12" font-weight="bold" font-size="14.00">Legend</text>
<polygon fill="#ffffb3" stroke="transparent" points="66,-10 66,-30 86,-30 86,-10 66,-10"/>
<text text-anchor="start" x="89.63" y="-15.4" font-family="Times-12" font-size="14.00"> &#160;Declarations</text>
<polygon fill="#8dd3c7" stroke="transparent" points="179,-10 179,-30 199,-30 199,-10 179,-10"/>
<text text-anchor="start" x="202.73" y="-15.4" font-family="Times-12" font-size="14.00"> &#160;Module</text>
<polygon fill="#80b1d3" stroke="transparent" points="265,-10 265,-30 285,-30 285,-10 265,-10"/>
<text text-anchor="start" x="288.78" y="-15.4" font-family="Times-12" font-size="14.00"> &#160;Bootstrap</text>
<polygon fill="#fdb462" stroke="transparent" points="362,-10 362,-30 382,-30 382,-10 362,-10"/>
<text text-anchor="start" x="385.67" y="-15.4" font-family="Times-12" font-size="14.00"> &#160;Providers</text>
<polygon fill="#fb8072" stroke="transparent" points="458,-10 458,-30 478,-30 478,-10 458,-10"/>
<text text-anchor="start" x="481.73" y="-15.4" font-family="Times-12" font-size="14.00"> &#160;Exports</text>
<g id="clust1" class="cluster">
<title>cluster_AuthModule</title>
<polygon fill="none" stroke="black" stroke-dasharray="1,5" points="8,-70 8,-268 592,-268 592,-70 8,-70"/>
</g>
<g id="clust4" class="cluster">
<title>cluster_AuthModule_exports</title>
<polygon fill="none" stroke="black" points="189,-208 189,-260 427,-260 427,-208 189,-208"/>
</g>
<g id="clust6" class="cluster">
<title>cluster_AuthModule_providers</title>
<polygon fill="none" stroke="black" points="16,-78 16,-130 584,-130 584,-78 16,-78"/>
</g>
<!-- AuthService  -->
<g id="node1" class="node">
<title>AuthService </title>
<polygon fill="#fb8072" stroke="black" points="418.98,-252 329.02,-252 329.02,-216 418.98,-216 418.98,-252"/>
<text text-anchor="middle" x="374" y="-229.8" font-family="Times,serif" font-size="14.00">AuthService </text>
</g>
<!-- HashingProvider  -->
<g id="node2" class="node">
<title>HashingProvider </title>
<polygon fill="#fb8072" stroke="black" points="311.37,-252 196.63,-252 196.63,-216 311.37,-216 311.37,-252"/>
<text text-anchor="middle" x="254" y="-229.8" font-family="Times,serif" font-size="14.00">HashingProvider </text>
</g>
<!-- AuthModule -->
<g id="node3" class="node">
<title>AuthModule</title>
<polygon fill="#8dd3c7" stroke="black" points="357.55,-187 354.55,-191 333.55,-191 330.55,-187 270.45,-187 270.45,-151 357.55,-151 357.55,-187"/>
<text text-anchor="middle" x="314" y="-164.8" font-family="Times,serif" font-size="14.00">AuthModule</text>
</g>
<!-- AuthModule&#45;&gt;AuthService  -->
<g id="edge1" class="edge">
<title>AuthModule&#45;&gt;AuthService </title>
<path fill="none" stroke="black" stroke-dasharray="5,2" d="M343.52,-187.11C343.52,-187.11 343.52,-205.99 343.52,-205.99"/>
<polygon fill="black" stroke="black" points="340.02,-205.99 343.52,-215.99 347.02,-205.99 340.02,-205.99"/>
</g>
<!-- AuthModule&#45;&gt;HashingProvider  -->
<g id="edge2" class="edge">
<title>AuthModule&#45;&gt;HashingProvider </title>
<path fill="none" stroke="black" stroke-dasharray="5,2" d="M290.7,-187.11C290.7,-187.11 290.7,-205.99 290.7,-205.99"/>
<polygon fill="black" stroke="black" points="287.2,-205.99 290.7,-215.99 294.2,-205.99 287.2,-205.99"/>
</g>
<!-- AuthService -->
<g id="node4" class="node">
<title>AuthService</title>
<ellipse fill="#fdb462" stroke="black" cx="517" cy="-104" rx="59.11" ry="18"/>
<text text-anchor="middle" x="517" y="-99.8" font-family="Times,serif" font-size="14.00">AuthService</text>
</g>
<!-- AuthService&#45;&gt;AuthModule -->
<g id="edge3" class="edge">
<title>AuthService&#45;&gt;AuthModule</title>
<path fill="none" stroke="black" d="M517,-122.11C517,-141.34 517,-169 517,-169 517,-169 367.55,-169 367.55,-169"/>
<polygon fill="black" stroke="black" points="367.55,-165.5 357.55,-169 367.55,-172.5 367.55,-165.5"/>
</g>
<!-- GoogleAuthenticationService -->
<g id="node5" class="node">
<title>GoogleAuthenticationService</title>
<ellipse fill="#fdb462" stroke="black" cx="314" cy="-104" rx="125.62" ry="18"/>
<text text-anchor="middle" x="314" y="-99.8" font-family="Times,serif" font-size="14.00">GoogleAuthenticationService</text>
</g>
<!-- GoogleAuthenticationService&#45;&gt;AuthModule -->
<g id="edge4" class="edge">
<title>GoogleAuthenticationService&#45;&gt;AuthModule</title>
<path fill="none" stroke="black" d="M314,-122.11C314,-122.11 314,-140.99 314,-140.99"/>
<polygon fill="black" stroke="black" points="310.5,-140.99 314,-150.99 317.5,-140.99 310.5,-140.99"/>
</g>
<!-- TokensProvider -->
<g id="node6" class="node">
<title>TokensProvider</title>
<ellipse fill="#fdb462" stroke="black" cx="97" cy="-104" rx="72.94" ry="18"/>
<text text-anchor="middle" x="97" y="-99.8" font-family="Times,serif" font-size="14.00">TokensProvider</text>
</g>
<!-- TokensProvider&#45;&gt;AuthModule -->
<g id="edge5" class="edge">
<title>TokensProvider&#45;&gt;AuthModule</title>
<path fill="none" stroke="black" d="M97,-122.11C97,-141.34 97,-169 97,-169 97,-169 260.35,-169 260.35,-169"/>
<polygon fill="black" stroke="black" points="260.35,-172.5 270.35,-169 260.35,-165.5 260.35,-172.5"/>
</g>
</g>
</svg>
