<?xml version="1.0" encoding="UTF-8" standalone="no"?>
<!DOCTYPE svg PUBLIC "-//W3C//DTD SVG 1.1//EN"
 "http://www.w3.org/Graphics/SVG/1.1/DTD/svg11.dtd">
<!-- Generated by graphviz version 2.47.0 (20210316.0004)
 -->
<!-- Title: dependencies Pages: 1 -->
<svg width="1119pt" height="211pt"
 viewBox="0.00 0.00 1119.00 211.00" xmlns="http://www.w3.org/2000/svg" xmlns:xlink="http://www.w3.org/1999/xlink">
<g id="graph0" class="graph" transform="scale(1 1) rotate(0) translate(4 207)">
<title>dependencies</title>
<polygon fill="white" stroke="transparent" points="-4,4 -4,-207 1115,-207 1115,4 -4,4"/>
<text text-anchor="start" x="534.51" y="-42.4" font-family="Times-12" font-weight="bold" font-size="14.00">Legend</text>
<polygon fill="#ffffb3" stroke="transparent" points="321.5,-10 321.5,-30 341.5,-30 341.5,-10 321.5,-10"/>
<text text-anchor="start" x="345.13" y="-15.4" font-family="Times-12" font-size="14.00"> &#160;Declarations</text>
<polygon fill="#8dd3c7" stroke="transparent" points="434.5,-10 434.5,-30 454.5,-30 454.5,-10 434.5,-10"/>
<text text-anchor="start" x="458.23" y="-15.4" font-family="Times-12" font-size="14.00"> &#160;Module</text>
<polygon fill="#80b1d3" stroke="transparent" points="520.5,-10 520.5,-30 540.5,-30 540.5,-10 520.5,-10"/>
<text text-anchor="start" x="544.28" y="-15.4" font-family="Times-12" font-size="14.00"> &#160;Bootstrap</text>
<polygon fill="#fdb462" stroke="transparent" points="617.5,-10 617.5,-30 637.5,-30 637.5,-10 617.5,-10"/>
<text text-anchor="start" x="641.17" y="-15.4" font-family="Times-12" font-size="14.00"> &#160;Providers</text>
<polygon fill="#fb8072" stroke="transparent" points="713.5,-10 713.5,-30 733.5,-30 733.5,-10 713.5,-10"/>
<text text-anchor="start" x="737.23" y="-15.4" font-family="Times-12" font-size="14.00"> &#160;Exports</text>
<g id="clust1" class="cluster">
<title>cluster_AppModule</title>
<polygon fill="none" stroke="black" stroke-dasharray="1,5" points="8,-70 8,-195 1103,-195 1103,-70 8,-70"/>
</g>
<g id="clust6" class="cluster">
<title>cluster_AppModule_providers</title>
<polygon fill="none" stroke="black" points="965,-78 965,-130 1095,-130 1095,-78 965,-78"/>
</g>
<g id="clust3" class="cluster">
<title>cluster_AppModule_imports</title>
<polygon fill="none" stroke="black" points="16,-78 16,-130 957,-130 957,-78 16,-78"/>
</g>
<!-- AuthModule -->
<g id="node1" class="node">
<title>AuthModule</title>
<polygon fill="#8dd3c7" stroke="black" points="948.55,-122 945.55,-126 924.55,-126 921.55,-122 861.45,-122 861.45,-86 948.55,-86 948.55,-122"/>
<text text-anchor="middle" x="905" y="-99.8" font-family="Times,serif" font-size="14.00">AuthModule</text>
</g>
<!-- AppModule -->
<g id="node9" class="node">
<title>AppModule</title>
<polygon fill="#8dd3c7" stroke="black" points="570.66,-187 567.66,-191 546.66,-191 543.66,-187 487.34,-187 487.34,-151 570.66,-151 570.66,-187"/>
<text text-anchor="middle" x="529" y="-164.8" font-family="Times,serif" font-size="14.00">AppModule</text>
</g>
<!-- AuthModule&#45;&gt;AppModule -->
<g id="edge1" class="edge">
<title>AuthModule&#45;&gt;AppModule</title>
<path fill="none" stroke="black" d="M905,-122.13C905,-142.57 905,-173 905,-173 905,-173 580.68,-173 580.68,-173"/>
<polygon fill="black" stroke="black" points="580.68,-169.5 570.68,-173 580.68,-176.5 580.68,-169.5"/>
</g>
<!-- MailModule -->
<g id="node2" class="node">
<title>MailModule</title>
<polygon fill="#8dd3c7" stroke="black" points="842.99,-122 839.99,-126 818.99,-126 815.99,-122 757.01,-122 757.01,-86 842.99,-86 842.99,-122"/>
<text text-anchor="middle" x="800" y="-99.8" font-family="Times,serif" font-size="14.00">MailModule</text>
</g>
<!-- MailModule&#45;&gt;AppModule -->
<g id="edge2" class="edge">
<title>MailModule&#45;&gt;AppModule</title>
<path fill="none" stroke="black" d="M800,-122.27C800,-140.56 800,-166 800,-166 800,-166 580.75,-166 580.75,-166"/>
<polygon fill="black" stroke="black" points="580.75,-162.5 570.75,-166 580.75,-169.5 580.75,-162.5"/>
</g>
<!-- MetaOptionsModule -->
<g id="node3" class="node">
<title>MetaOptionsModule</title>
<polygon fill="#8dd3c7" stroke="black" points="739.15,-122 736.15,-126 715.15,-126 712.15,-122 606.85,-122 606.85,-86 739.15,-86 739.15,-122"/>
<text text-anchor="middle" x="673" y="-99.8" font-family="Times,serif" font-size="14.00">MetaOptionsModule</text>
</g>
<!-- MetaOptionsModule&#45;&gt;AppModule -->
<g id="edge3" class="edge">
<title>MetaOptionsModule&#45;&gt;AppModule</title>
<path fill="none" stroke="black" d="M673,-122.01C673,-138.05 673,-159 673,-159 673,-159 581.04,-159 581.04,-159"/>
<polygon fill="black" stroke="black" points="581.04,-155.5 571.04,-159 581.04,-162.5 581.04,-155.5"/>
</g>
<!-- PaginationModule -->
<g id="node4" class="node">
<title>PaginationModule</title>
<polygon fill="#8dd3c7" stroke="black" points="588.93,-122 585.93,-126 564.93,-126 561.93,-122 469.07,-122 469.07,-86 588.93,-86 588.93,-122"/>
<text text-anchor="middle" x="529" y="-99.8" font-family="Times,serif" font-size="14.00">PaginationModule</text>
</g>
<!-- PaginationModule&#45;&gt;AppModule -->
<g id="edge4" class="edge">
<title>PaginationModule&#45;&gt;AppModule</title>
<path fill="none" stroke="black" d="M529,-122.11C529,-122.11 529,-140.99 529,-140.99"/>
<polygon fill="black" stroke="black" points="525.5,-140.99 529,-150.99 532.5,-140.99 525.5,-140.99"/>
</g>
<!-- PostsModule -->
<g id="node5" class="node">
<title>PostsModule</title>
<polygon fill="#8dd3c7" stroke="black" points="451.61,-122 448.61,-126 427.61,-126 424.61,-122 362.39,-122 362.39,-86 451.61,-86 451.61,-122"/>
<text text-anchor="middle" x="407" y="-99.8" font-family="Times,serif" font-size="14.00">PostsModule</text>
</g>
<!-- PostsModule&#45;&gt;AppModule -->
<g id="edge5" class="edge">
<title>PostsModule&#45;&gt;AppModule</title>
<path fill="none" stroke="black" d="M407,-122.01C407,-138.05 407,-159 407,-159 407,-159 477.01,-159 477.01,-159"/>
<polygon fill="black" stroke="black" points="477.01,-162.5 487.01,-159 477.01,-155.5 477.01,-162.5"/>
</g>
<!-- TagsModule -->
<g id="node6" class="node">
<title>TagsModule</title>
<polygon fill="#8dd3c7" stroke="black" points="344.26,-122 341.26,-126 320.26,-126 317.26,-122 257.74,-122 257.74,-86 344.26,-86 344.26,-122"/>
<text text-anchor="middle" x="301" y="-99.8" font-family="Times,serif" font-size="14.00">TagsModule</text>
</g>
<!-- TagsModule&#45;&gt;AppModule -->
<g id="edge6" class="edge">
<title>TagsModule&#45;&gt;AppModule</title>
<path fill="none" stroke="black" d="M301,-122.27C301,-140.56 301,-166 301,-166 301,-166 477.18,-166 477.18,-166"/>
<polygon fill="black" stroke="black" points="477.18,-169.5 487.18,-166 477.18,-162.5 477.18,-169.5"/>
</g>
<!-- UploadsModule -->
<g id="node7" class="node">
<title>UploadsModule</title>
<polygon fill="#8dd3c7" stroke="black" points="240.21,-122 237.21,-126 216.21,-126 213.21,-122 133.79,-122 133.79,-86 240.21,-86 240.21,-122"/>
<text text-anchor="middle" x="187" y="-99.8" font-family="Times,serif" font-size="14.00">UploadsModule</text>
</g>
<!-- UploadsModule&#45;&gt;AppModule -->
<g id="edge7" class="edge">
<title>UploadsModule&#45;&gt;AppModule</title>
<path fill="none" stroke="black" d="M187,-122.13C187,-142.57 187,-173 187,-173 187,-173 477.06,-173 477.06,-173"/>
<polygon fill="black" stroke="black" points="477.06,-176.5 487.06,-173 477.06,-169.5 477.06,-176.5"/>
</g>
<!-- UsersModule -->
<g id="node8" class="node">
<title>UsersModule</title>
<polygon fill="#8dd3c7" stroke="black" points="115.92,-122 112.92,-126 91.92,-126 88.92,-122 24.08,-122 24.08,-86 115.92,-86 115.92,-122"/>
<text text-anchor="middle" x="70" y="-99.8" font-family="Times,serif" font-size="14.00">UsersModule</text>
</g>
<!-- UsersModule&#45;&gt;AppModule -->
<g id="edge8" class="edge">
<title>UsersModule&#45;&gt;AppModule</title>
<path fill="none" stroke="black" d="M70,-122.01C70,-144.49 70,-180 70,-180 70,-180 477.05,-180 477.05,-180"/>
<polygon fill="black" stroke="black" points="477.05,-183.5 487.05,-180 477.05,-176.5 477.05,-183.5"/>
</g>
<!-- AppService -->
<g id="node10" class="node">
<title>AppService</title>
<ellipse fill="#fdb462" stroke="black" cx="1030" cy="-104" rx="56.74" ry="18"/>
<text text-anchor="middle" x="1030" y="-99.8" font-family="Times,serif" font-size="14.00">AppService</text>
</g>
<!-- AppService&#45;&gt;AppModule -->
<g id="edge9" class="edge">
<title>AppService&#45;&gt;AppModule</title>
<path fill="none" stroke="black" d="M1030,-122.01C1030,-144.49 1030,-180 1030,-180 1030,-180 580.85,-180 580.85,-180"/>
<polygon fill="black" stroke="black" points="580.85,-176.5 570.85,-180 580.85,-183.5 580.85,-176.5"/>
</g>
</g>
</svg>
