<?xml version="1.0" encoding="UTF-8" standalone="no"?>
<!DOCTYPE svg PUBLIC "-//W3C//DTD SVG 1.1//EN"
 "http://www.w3.org/Graphics/SVG/1.1/DTD/svg11.dtd">
<!-- Generated by graphviz version 2.47.0 (20210316.0004)
 -->
<!-- Title: dependencies Pages: 1 -->
<svg width="2902pt" height="363pt"
 viewBox="0.00 0.00 2902.00 363.00" xmlns="http://www.w3.org/2000/svg" xmlns:xlink="http://www.w3.org/1999/xlink">
<g id="graph0" class="graph" transform="scale(1 1) rotate(0) translate(4 359)">
<title>dependencies</title>
<polygon fill="white" stroke="transparent" points="-4,4 -4,-359 2898,-359 2898,4 -4,4"/>
<text text-anchor="start" x="1426.01" y="-42.4" font-family="Times-12" font-weight="bold" font-size="14.00">Legend</text>
<polygon fill="#ffffb3" stroke="transparent" points="1213,-10 1213,-30 1233,-30 1233,-10 1213,-10"/>
<text text-anchor="start" x="1236.63" y="-15.4" font-family="Times-12" font-size="14.00"> &#160;Declarations</text>
<polygon fill="#8dd3c7" stroke="transparent" points="1326,-10 1326,-30 1346,-30 1346,-10 1326,-10"/>
<text text-anchor="start" x="1349.73" y="-15.4" font-family="Times-12" font-size="14.00"> &#160;Module</text>
<polygon fill="#80b1d3" stroke="transparent" points="1412,-10 1412,-30 1432,-30 1432,-10 1412,-10"/>
<text text-anchor="start" x="1435.78" y="-15.4" font-family="Times-12" font-size="14.00"> &#160;Bootstrap</text>
<polygon fill="#fdb462" stroke="transparent" points="1509,-10 1509,-30 1529,-30 1529,-10 1509,-10"/>
<text text-anchor="start" x="1532.67" y="-15.4" font-family="Times-12" font-size="14.00"> &#160;Providers</text>
<polygon fill="#fb8072" stroke="transparent" points="1605,-10 1605,-30 1625,-30 1625,-10 1605,-10"/>
<text text-anchor="start" x="1628.73" y="-15.4" font-family="Times-12" font-size="14.00"> &#160;Exports</text>
<g id="clust1" class="cluster">
<title>cluster_AppModule</title>
<polygon fill="none" stroke="black" stroke-dasharray="1,5" points="619,-146 619,-347 1606,-347 1606,-146 619,-146"/>
</g>
<g id="clust3" class="cluster">
<title>cluster_AppModule_imports</title>
<polygon fill="none" stroke="black" points="765,-154 765,-282 1598,-282 1598,-154 765,-154"/>
</g>
<g id="clust6" class="cluster">
<title>cluster_AppModule_providers</title>
<polygon fill="none" stroke="black" points="627,-230 627,-282 757,-282 757,-230 627,-230"/>
</g>
<g id="clust7" class="cluster">
<title>cluster_AuthModule</title>
<polygon fill="none" stroke="black" stroke-dasharray="1,5" points="8,-70 8,-138 838,-138 838,-70 8,-70"/>
</g>
<g id="clust10" class="cluster">
<title>cluster_AuthModule_exports</title>
<polygon fill="none" stroke="black" points="592,-78 592,-130 830,-130 830,-78 592,-78"/>
</g>
<g id="clust12" class="cluster">
<title>cluster_AuthModule_providers</title>
<polygon fill="none" stroke="black" points="16,-78 16,-130 584,-130 584,-78 16,-78"/>
</g>
<g id="clust13" class="cluster">
<title>cluster_MailModule</title>
<polygon fill="none" stroke="black" stroke-dasharray="1,5" points="1614,-222 1614,-290 1874,-290 1874,-222 1614,-222"/>
</g>
<g id="clust16" class="cluster">
<title>cluster_MailModule_exports</title>
<polygon fill="none" stroke="black" points="1762,-230 1762,-282 1866,-282 1866,-230 1762,-230"/>
</g>
<g id="clust18" class="cluster">
<title>cluster_MailModule_providers</title>
<polygon fill="none" stroke="black" points="1622,-230 1622,-282 1754,-282 1754,-230 1622,-230"/>
</g>
<g id="clust19" class="cluster">
<title>cluster_MetaOptionsModule</title>
<polygon fill="none" stroke="black" stroke-dasharray="1,5" points="1882,-222 1882,-290 2252,-290 2252,-222 1882,-222"/>
</g>
<g id="clust22" class="cluster">
<title>cluster_MetaOptionsModule_exports</title>
<polygon fill="none" stroke="black" points="2094,-230 2094,-282 2244,-282 2244,-230 2094,-230"/>
</g>
<g id="clust24" class="cluster">
<title>cluster_MetaOptionsModule_providers</title>
<polygon fill="none" stroke="black" points="1890,-230 1890,-282 2086,-282 2086,-230 1890,-230"/>
</g>
<g id="clust25" class="cluster">
<title>cluster_PaginationModule</title>
<polygon fill="none" stroke="black" stroke-dasharray="1,5" points="2260,-222 2260,-290 2616,-290 2616,-222 2260,-222"/>
</g>
<g id="clust28" class="cluster">
<title>cluster_PaginationModule_exports</title>
<polygon fill="none" stroke="black" points="2464,-230 2464,-282 2608,-282 2608,-230 2464,-230"/>
</g>
<g id="clust30" class="cluster">
<title>cluster_PaginationModule_providers</title>
<polygon fill="none" stroke="black" points="2268,-230 2268,-282 2456,-282 2456,-230 2268,-230"/>
</g>
<g id="clust31" class="cluster">
<title>cluster_PostsModule</title>
<polygon fill="none" stroke="black" stroke-dasharray="1,5" points="459,-146 459,-214 611,-214 611,-146 459,-146"/>
</g>
<g id="clust36" class="cluster">
<title>cluster_PostsModule_providers</title>
<polygon fill="none" stroke="black" points="467,-154 467,-206 603,-206 603,-154 467,-154"/>
</g>
<g id="clust37" class="cluster">
<title>cluster_TagsModule</title>
<polygon fill="none" stroke="black" stroke-dasharray="1,5" points="2624,-222 2624,-290 2886,-290 2886,-222 2624,-222"/>
</g>
<g id="clust40" class="cluster">
<title>cluster_TagsModule_exports</title>
<polygon fill="none" stroke="black" points="2774,-230 2774,-282 2878,-282 2878,-230 2774,-230"/>
</g>
<g id="clust42" class="cluster">
<title>cluster_TagsModule_providers</title>
<polygon fill="none" stroke="black" points="2632,-230 2632,-282 2766,-282 2766,-230 2632,-230"/>
</g>
<g id="clust43" class="cluster">
<title>cluster_UploadsModule</title>
<polygon fill="none" stroke="black" stroke-dasharray="1,5" points="1568,-70 1568,-138 1964,-138 1964,-70 1568,-70"/>
</g>
<g id="clust48" class="cluster">
<title>cluster_UploadsModule_providers</title>
<polygon fill="none" stroke="black" points="1576,-78 1576,-130 1956,-130 1956,-78 1576,-78"/>
</g>
<g id="clust49" class="cluster">
<title>cluster_UsersModule</title>
<polygon fill="none" stroke="black" stroke-dasharray="1,5" points="846,-70 846,-138 1560,-138 1560,-70 846,-70"/>
</g>
<g id="clust52" class="cluster">
<title>cluster_UsersModule_exports</title>
<polygon fill="none" stroke="black" points="1442,-78 1442,-130 1552,-130 1552,-78 1442,-78"/>
</g>
<g id="clust54" class="cluster">
<title>cluster_UsersModule_providers</title>
<polygon fill="none" stroke="black" points="854,-78 854,-130 1434,-130 1434,-78 854,-78"/>
</g>
<!-- AuthModule -->
<g id="node1" class="node">
<title>AuthModule</title>
<polygon fill="#8dd3c7" stroke="black" points="860.55,-198 857.55,-202 836.55,-202 833.55,-198 773.45,-198 773.45,-162 860.55,-162 860.55,-198"/>
<text text-anchor="middle" x="817" y="-175.8" font-family="Times,serif" font-size="14.00">AuthModule</text>
</g>
<!-- AppModule -->
<g id="node9" class="node">
<title>AppModule</title>
<polygon fill="#8dd3c7" stroke="black" points="1176.66,-339 1173.66,-343 1152.66,-343 1149.66,-339 1093.34,-339 1093.34,-303 1176.66,-303 1176.66,-339"/>
<text text-anchor="middle" x="1135" y="-316.8" font-family="Times,serif" font-size="14.00">AppModule</text>
</g>
<!-- AuthModule&#45;&gt;AppModule -->
<g id="edge1" class="edge">
<title>AuthModule&#45;&gt;AppModule</title>
<path fill="none" stroke="black" d="M817,-198.04C817,-235.45 817,-318 817,-318 817,-318 1083.1,-318 1083.1,-318"/>
<polygon fill="black" stroke="black" points="1083.1,-321.5 1093.1,-318 1083.1,-314.5 1083.1,-321.5"/>
</g>
<!-- AuthService  -->
<g id="node11" class="node">
<title>AuthService </title>
<polygon fill="#fb8072" stroke="black" points="689.98,-122 600.02,-122 600.02,-86 689.98,-86 689.98,-122"/>
<text text-anchor="middle" x="645" y="-99.8" font-family="Times,serif" font-size="14.00">AuthService </text>
</g>
<!-- AuthModule&#45;&gt;AuthService  -->
<g id="edge10" class="edge">
<title>AuthModule&#45;&gt;AuthService </title>
<path fill="none" stroke="black" stroke-dasharray="5,2" d="M773.16,-174C727.5,-174 662.56,-174 662.56,-174 662.56,-174 662.56,-132.03 662.56,-132.03"/>
<polygon fill="black" stroke="black" points="666.06,-132.03 662.56,-122.03 659.06,-132.03 666.06,-132.03"/>
</g>
<!-- HashingProvider  -->
<g id="node12" class="node">
<title>HashingProvider </title>
<polygon fill="#fb8072" stroke="black" points="822.37,-122 707.63,-122 707.63,-86 822.37,-86 822.37,-122"/>
<text text-anchor="middle" x="765" y="-99.8" font-family="Times,serif" font-size="14.00">HashingProvider </text>
</g>
<!-- AuthModule&#45;&gt;HashingProvider  -->
<g id="edge11" class="edge">
<title>AuthModule&#45;&gt;HashingProvider </title>
<path fill="none" stroke="black" stroke-dasharray="5,2" d="M812.39,-161.99C812.39,-161.99 812.39,-132.15 812.39,-132.15"/>
<polygon fill="black" stroke="black" points="815.89,-132.15 812.39,-122.15 808.89,-132.15 815.89,-132.15"/>
</g>
<!-- MailModule -->
<g id="node2" class="node">
<title>MailModule</title>
<polygon fill="#8dd3c7" stroke="black" points="1197.99,-198 1194.99,-202 1173.99,-202 1170.99,-198 1112.01,-198 1112.01,-162 1197.99,-162 1197.99,-198"/>
<text text-anchor="middle" x="1155" y="-175.8" font-family="Times,serif" font-size="14.00">MailModule</text>
</g>
<!-- MailModule&#45;&gt;AppModule -->
<g id="edge2" class="edge">
<title>MailModule&#45;&gt;AppModule</title>
<path fill="none" stroke="black" d="M1144.42,-198.14C1144.42,-198.14 1144.42,-292.93 1144.42,-292.93"/>
<polygon fill="black" stroke="black" points="1140.92,-292.92 1144.42,-302.93 1147.92,-292.93 1140.92,-292.92"/>
</g>
<!-- MailService  -->
<g id="node16" class="node">
<title>MailService </title>
<polygon fill="#fb8072" stroke="black" points="1857.92,-274 1770.08,-274 1770.08,-238 1857.92,-238 1857.92,-274"/>
<text text-anchor="middle" x="1814" y="-251.8" font-family="Times,serif" font-size="14.00">MailService </text>
</g>
<!-- MailModule&#45;&gt;MailService  -->
<g id="edge15" class="edge">
<title>MailModule&#45;&gt;MailService </title>
<path fill="none" stroke="black" stroke-dasharray="5,2" d="M1183.88,-198.19C1183.88,-213.18 1183.88,-232 1183.88,-232 1183.88,-232 1778.09,-232 1778.09,-232 1778.09,-232 1778.09,-232.58 1778.09,-232.58"/>
<polygon fill="black" stroke="black" points="1774.59,-227.81 1778.09,-237.81 1781.59,-227.81 1774.59,-227.81"/>
</g>
<!-- MetaOptionsModule -->
<g id="node3" class="node">
<title>MetaOptionsModule</title>
<polygon fill="#8dd3c7" stroke="black" points="1348.15,-198 1345.15,-202 1324.15,-202 1321.15,-198 1215.85,-198 1215.85,-162 1348.15,-162 1348.15,-198"/>
<text text-anchor="middle" x="1282" y="-175.8" font-family="Times,serif" font-size="14.00">MetaOptionsModule</text>
</g>
<!-- PostsModule -->
<g id="node5" class="node">
<title>PostsModule</title>
<polygon fill="#8dd3c7" stroke="black" points="1075.61,-274 1072.61,-278 1051.61,-278 1048.61,-274 986.39,-274 986.39,-238 1075.61,-238 1075.61,-274"/>
<text text-anchor="middle" x="1031" y="-251.8" font-family="Times,serif" font-size="14.00">PostsModule</text>
</g>
<!-- MetaOptionsModule&#45;&gt;PostsModule -->
<g id="edge21" class="edge">
<title>MetaOptionsModule&#45;&gt;PostsModule</title>
<path fill="none" stroke="black" d="M1295.26,-198.03C1295.26,-218.77 1295.26,-250 1295.26,-250 1295.26,-250 1085.83,-250 1085.83,-250"/>
<polygon fill="black" stroke="black" points="1085.83,-246.5 1075.83,-250 1085.83,-253.5 1085.83,-246.5"/>
</g>
<!-- MetaOptionsModule&#45;&gt;AppModule -->
<g id="edge3" class="edge">
<title>MetaOptionsModule&#45;&gt;AppModule</title>
<path fill="none" stroke="black" d="M1321.79,-198.08C1321.79,-234.23 1321.79,-312 1321.79,-312 1321.79,-312 1186.92,-312 1186.92,-312"/>
<polygon fill="black" stroke="black" points="1186.92,-308.5 1176.92,-312 1186.92,-315.5 1186.92,-308.5"/>
</g>
<!-- MetaOptionsService  -->
<g id="node18" class="node">
<title>MetaOptionsService </title>
<polygon fill="#fb8072" stroke="black" points="2236.08,-274 2101.92,-274 2101.92,-238 2236.08,-238 2236.08,-274"/>
<text text-anchor="middle" x="2169" y="-251.8" font-family="Times,serif" font-size="14.00">MetaOptionsService </text>
</g>
<!-- MetaOptionsModule&#45;&gt;MetaOptionsService  -->
<g id="edge17" class="edge">
<title>MetaOptionsModule&#45;&gt;MetaOptionsService </title>
<path fill="none" stroke="black" stroke-dasharray="5,2" d="M1242.21,-198.11C1242.21,-207.9 1242.21,-218 1242.21,-218 1242.21,-218 2169,-218 2169,-218 2169,-218 2169,-227.89 2169,-227.89"/>
<polygon fill="black" stroke="black" points="2165.5,-227.89 2169,-237.89 2172.5,-227.89 2165.5,-227.89"/>
</g>
<!-- PaginationModule -->
<g id="node4" class="node">
<title>PaginationModule</title>
<polygon fill="#8dd3c7" stroke="black" points="1485.93,-198 1482.93,-202 1461.93,-202 1458.93,-198 1366.07,-198 1366.07,-162 1485.93,-162 1485.93,-198"/>
<text text-anchor="middle" x="1426" y="-175.8" font-family="Times,serif" font-size="14.00">PaginationModule</text>
</g>
<!-- PaginationModule&#45;&gt;PostsModule -->
<g id="edge22" class="edge">
<title>PaginationModule&#45;&gt;PostsModule</title>
<path fill="none" stroke="black" d="M1437.94,-198.01C1437.94,-220.49 1437.94,-256 1437.94,-256 1437.94,-256 1085.71,-256 1085.71,-256"/>
<polygon fill="black" stroke="black" points="1085.71,-252.5 1075.71,-256 1085.71,-259.5 1085.71,-252.5"/>
</g>
<!-- PaginationModule&#45;&gt;AppModule -->
<g id="edge4" class="edge">
<title>PaginationModule&#45;&gt;AppModule</title>
<path fill="none" stroke="black" d="M1461.83,-198.14C1461.83,-236.23 1461.83,-321 1461.83,-321 1461.83,-321 1186.73,-321 1186.73,-321"/>
<polygon fill="black" stroke="black" points="1186.73,-317.5 1176.73,-321 1186.73,-324.5 1186.73,-317.5"/>
</g>
<!-- PaginationProvider  -->
<g id="node20" class="node">
<title>PaginationProvider </title>
<polygon fill="#fb8072" stroke="black" points="2599.59,-274 2472.41,-274 2472.41,-238 2599.59,-238 2599.59,-274"/>
<text text-anchor="middle" x="2536" y="-251.8" font-family="Times,serif" font-size="14.00">PaginationProvider </text>
</g>
<!-- PaginationModule&#45;&gt;PaginationProvider  -->
<g id="edge19" class="edge">
<title>PaginationModule&#45;&gt;PaginationProvider </title>
<path fill="none" stroke="black" stroke-dasharray="5,2" d="M1390.17,-198.17C1390.17,-202.05 1390.17,-205 1390.17,-205 1390.17,-205 2536,-205 2536,-205 2536,-205 2536,-227.88 2536,-227.88"/>
<polygon fill="black" stroke="black" points="2532.5,-227.88 2536,-237.88 2539.5,-227.88 2532.5,-227.88"/>
</g>
<!-- PostsModule&#45;&gt;AppModule -->
<g id="edge5" class="edge">
<title>PostsModule&#45;&gt;AppModule</title>
<path fill="none" stroke="black" d="M1075.81,-268C1090.47,-268 1103.05,-268 1103.05,-268 1103.05,-268 1103.05,-292.76 1103.05,-292.76"/>
<polygon fill="black" stroke="black" points="1099.55,-292.76 1103.05,-302.76 1106.55,-292.76 1099.55,-292.76"/>
</g>
<!-- TagsModule -->
<g id="node6" class="node">
<title>TagsModule</title>
<polygon fill="#8dd3c7" stroke="black" points="1590.26,-198 1587.26,-202 1566.26,-202 1563.26,-198 1503.74,-198 1503.74,-162 1590.26,-162 1590.26,-198"/>
<text text-anchor="middle" x="1547" y="-175.8" font-family="Times,serif" font-size="14.00">TagsModule</text>
</g>
<!-- TagsModule&#45;&gt;PostsModule -->
<g id="edge23" class="edge">
<title>TagsModule&#45;&gt;PostsModule</title>
<path fill="none" stroke="black" d="M1532.54,-198.2C1532.54,-222.36 1532.54,-262 1532.54,-262 1532.54,-262 1085.95,-262 1085.95,-262"/>
<polygon fill="black" stroke="black" points="1085.95,-258.5 1075.95,-262 1085.95,-265.5 1085.95,-258.5"/>
</g>
<!-- TagsModule&#45;&gt;AppModule -->
<g id="edge6" class="edge">
<title>TagsModule&#45;&gt;AppModule</title>
<path fill="none" stroke="black" d="M1561.46,-198.09C1561.46,-237.99 1561.46,-330 1561.46,-330 1561.46,-330 1186.67,-330 1186.67,-330"/>
<polygon fill="black" stroke="black" points="1186.67,-326.5 1176.67,-330 1186.67,-333.5 1186.67,-326.5"/>
</g>
<!-- TagsService  -->
<g id="node23" class="node">
<title>TagsService </title>
<polygon fill="#fb8072" stroke="black" points="2870.19,-274 2781.81,-274 2781.81,-238 2870.19,-238 2870.19,-274"/>
<text text-anchor="middle" x="2826" y="-251.8" font-family="Times,serif" font-size="14.00">TagsService </text>
</g>
<!-- TagsModule&#45;&gt;TagsService  -->
<g id="edge26" class="edge">
<title>TagsModule&#45;&gt;TagsService </title>
<path fill="none" stroke="black" stroke-dasharray="5,2" d="M1590.29,-174C1813.7,-174 2826,-174 2826,-174 2826,-174 2826,-227.8 2826,-227.8"/>
<polygon fill="black" stroke="black" points="2822.5,-227.8 2826,-237.8 2829.5,-227.8 2822.5,-227.8"/>
</g>
<!-- UploadsModule -->
<g id="node7" class="node">
<title>UploadsModule</title>
<polygon fill="#8dd3c7" stroke="black" points="1094.21,-198 1091.21,-202 1070.21,-202 1067.21,-198 987.79,-198 987.79,-162 1094.21,-162 1094.21,-198"/>
<text text-anchor="middle" x="1041" y="-175.8" font-family="Times,serif" font-size="14.00">UploadsModule</text>
</g>
<!-- UploadsModule&#45;&gt;AppModule -->
<g id="edge7" class="edge">
<title>UploadsModule&#45;&gt;AppModule</title>
<path fill="none" stroke="black" d="M1084.36,-198.03C1084.36,-238.3 1084.36,-332 1084.36,-332 1084.36,-332 1085.25,-332 1085.25,-332"/>
<polygon fill="black" stroke="black" points="1083.18,-335.5 1093.18,-332 1083.18,-328.5 1083.18,-335.5"/>
</g>
<!-- UsersModule -->
<g id="node8" class="node">
<title>UsersModule</title>
<polygon fill="#8dd3c7" stroke="black" points="969.92,-198 966.92,-202 945.92,-202 942.92,-198 878.08,-198 878.08,-162 969.92,-162 969.92,-198"/>
<text text-anchor="middle" x="924" y="-175.8" font-family="Times,serif" font-size="14.00">UsersModule</text>
</g>
<!-- UsersModule&#45;&gt;PostsModule -->
<g id="edge24" class="edge">
<title>UsersModule&#45;&gt;PostsModule</title>
<path fill="none" stroke="black" d="M939.24,-198.03C939.24,-218.77 939.24,-250 939.24,-250 939.24,-250 976.19,-250 976.19,-250"/>
<polygon fill="black" stroke="black" points="976.19,-253.5 986.19,-250 976.19,-246.5 976.19,-253.5"/>
</g>
<!-- UsersModule&#45;&gt;AppModule -->
<g id="edge8" class="edge">
<title>UsersModule&#45;&gt;AppModule</title>
<path fill="none" stroke="black" d="M908.76,-198.21C908.76,-234.21 908.76,-311 908.76,-311 908.76,-311 1083.24,-311 1083.24,-311"/>
<polygon fill="black" stroke="black" points="1083.24,-314.5 1093.24,-311 1083.24,-307.5 1083.24,-314.5"/>
</g>
<!-- UsersService  -->
<g id="node27" class="node">
<title>UsersService </title>
<polygon fill="#fb8072" stroke="black" points="1543.85,-122 1450.15,-122 1450.15,-86 1543.85,-86 1543.85,-122"/>
<text text-anchor="middle" x="1497" y="-99.8" font-family="Times,serif" font-size="14.00">UsersService </text>
</g>
<!-- UsersModule&#45;&gt;UsersService  -->
<g id="edge30" class="edge">
<title>UsersModule&#45;&gt;UsersService </title>
<path fill="none" stroke="black" stroke-dasharray="5,2" d="M914.86,-161.97C914.86,-155.15 914.86,-149 914.86,-149 914.86,-149 1468.02,-149 1468.02,-149 1468.02,-149 1468.02,-132.04 1468.02,-132.04"/>
<polygon fill="black" stroke="black" points="1471.52,-132.04 1468.02,-122.04 1464.52,-132.04 1471.52,-132.04"/>
</g>
<!-- AppService -->
<g id="node10" class="node">
<title>AppService</title>
<ellipse fill="#fdb462" stroke="black" cx="692" cy="-256" rx="56.74" ry="18"/>
<text text-anchor="middle" x="692" y="-251.8" font-family="Times,serif" font-size="14.00">AppService</text>
</g>
<!-- AppService&#45;&gt;AppModule -->
<g id="edge9" class="edge">
<title>AppService&#45;&gt;AppModule</title>
<path fill="none" stroke="black" d="M692,-274.13C692,-294.57 692,-325 692,-325 692,-325 1083.32,-325 1083.32,-325"/>
<polygon fill="black" stroke="black" points="1083.32,-328.5 1093.32,-325 1083.32,-321.5 1083.32,-328.5"/>
</g>
<!-- AuthService -->
<g id="node13" class="node">
<title>AuthService</title>
<ellipse fill="#fdb462" stroke="black" cx="517" cy="-104" rx="59.11" ry="18"/>
<text text-anchor="middle" x="517" y="-99.8" font-family="Times,serif" font-size="14.00">AuthService</text>
</g>
<!-- AuthService&#45;&gt;AuthModule -->
<g id="edge12" class="edge">
<title>AuthService&#45;&gt;AuthModule</title>
<path fill="none" stroke="black" d="M525.46,-122.12C525.46,-124.97 525.46,-127 525.46,-127 525.46,-127 802.6,-127 802.6,-127 802.6,-127 802.6,-151.76 802.6,-151.76"/>
<polygon fill="black" stroke="black" points="799.1,-151.76 802.6,-161.76 806.1,-151.76 799.1,-151.76"/>
</g>
<!-- GoogleAuthenticationService -->
<g id="node14" class="node">
<title>GoogleAuthenticationService</title>
<ellipse fill="#fdb462" stroke="black" cx="314" cy="-104" rx="125.62" ry="18"/>
<text text-anchor="middle" x="314" y="-99.8" font-family="Times,serif" font-size="14.00">GoogleAuthenticationService</text>
</g>
<!-- GoogleAuthenticationService&#45;&gt;AuthModule -->
<g id="edge13" class="edge">
<title>GoogleAuthenticationService&#45;&gt;AuthModule</title>
<path fill="none" stroke="black" d="M314,-122.16C314,-127.04 314,-131 314,-131 314,-131 792.81,-131 792.81,-131 792.81,-131 792.81,-151.75 792.81,-151.75"/>
<polygon fill="black" stroke="black" points="789.31,-151.75 792.81,-161.75 796.31,-151.75 789.31,-151.75"/>
</g>
<!-- TokensProvider -->
<g id="node15" class="node">
<title>TokensProvider</title>
<ellipse fill="#fdb462" stroke="black" cx="97" cy="-104" rx="72.94" ry="18"/>
<text text-anchor="middle" x="97" y="-99.8" font-family="Times,serif" font-size="14.00">TokensProvider</text>
</g>
<!-- TokensProvider&#45;&gt;AuthModule -->
<g id="edge14" class="edge">
<title>TokensProvider&#45;&gt;AuthModule</title>
<path fill="none" stroke="black" d="M97,-122.24C97,-129.43 97,-136 97,-136 97,-136 783.02,-136 783.02,-136 783.02,-136 783.02,-151.85 783.02,-151.85"/>
<polygon fill="black" stroke="black" points="779.52,-151.85 783.02,-161.85 786.52,-151.85 779.52,-151.85"/>
</g>
<!-- MailService -->
<g id="node17" class="node">
<title>MailService</title>
<ellipse fill="#fdb462" stroke="black" cx="1688" cy="-256" rx="58.46" ry="18"/>
<text text-anchor="middle" x="1688" y="-251.8" font-family="Times,serif" font-size="14.00">MailService</text>
</g>
<!-- MailService&#45;&gt;MailModule -->
<g id="edge16" class="edge">
<title>MailService&#45;&gt;MailModule</title>
<path fill="none" stroke="black" d="M1644.32,-244C1523.03,-244 1190.94,-244 1190.94,-244 1190.94,-244 1190.94,-208.17 1190.94,-208.17"/>
<polygon fill="black" stroke="black" points="1194.44,-208.17 1190.94,-198.17 1187.44,-208.17 1194.44,-208.17"/>
</g>
<!-- MetaOptionsService -->
<g id="node19" class="node">
<title>MetaOptionsService</title>
<ellipse fill="#fdb462" stroke="black" cx="1988" cy="-256" rx="90.33" ry="18"/>
<text text-anchor="middle" x="1988" y="-251.8" font-family="Times,serif" font-size="14.00">MetaOptionsService</text>
</g>
<!-- MetaOptionsService&#45;&gt;MetaOptionsModule -->
<g id="edge18" class="edge">
<title>MetaOptionsService&#45;&gt;MetaOptionsModule</title>
<path fill="none" stroke="black" d="M1922.88,-243.39C1922.88,-234.81 1922.88,-225 1922.88,-225 1922.88,-225 1268.74,-225 1268.74,-225 1268.74,-225 1268.74,-208.04 1268.74,-208.04"/>
<polygon fill="black" stroke="black" points="1272.24,-208.04 1268.74,-198.04 1265.24,-208.04 1272.24,-208.04"/>
</g>
<!-- PaginationProvider -->
<g id="node21" class="node">
<title>PaginationProvider</title>
<ellipse fill="#fdb462" stroke="black" cx="2362" cy="-256" rx="85.69" ry="18"/>
<text text-anchor="middle" x="2362" y="-251.8" font-family="Times,serif" font-size="14.00">PaginationProvider</text>
</g>
<!-- PaginationProvider&#45;&gt;PaginationModule -->
<g id="edge20" class="edge">
<title>PaginationProvider&#45;&gt;PaginationModule</title>
<path fill="none" stroke="black" d="M2362,-237.85C2362,-225.73 2362,-212 2362,-212 2362,-212 1414.06,-212 1414.06,-212 1414.06,-212 1414.06,-208.24 1414.06,-208.24"/>
<polygon fill="black" stroke="black" points="1417.56,-208.24 1414.06,-198.24 1410.56,-208.24 1417.56,-208.24"/>
</g>
<!-- PostsService -->
<g id="node22" class="node">
<title>PostsService</title>
<ellipse fill="#fdb462" stroke="black" cx="535" cy="-180" rx="60.27" ry="18"/>
<text text-anchor="middle" x="535" y="-175.8" font-family="Times,serif" font-size="14.00">PostsService</text>
</g>
<!-- PostsService&#45;&gt;PostsModule -->
<g id="edge25" class="edge">
<title>PostsService&#45;&gt;PostsModule</title>
<path fill="none" stroke="black" d="M592.01,-186C658.94,-186 760.92,-186 760.92,-186 760.92,-186 760.92,-262 760.92,-262 760.92,-262 976.4,-262 976.4,-262"/>
<polygon fill="black" stroke="black" points="976.4,-265.5 986.4,-262 976.4,-258.5 976.4,-265.5"/>
</g>
<!-- TagsService -->
<g id="node24" class="node">
<title>TagsService</title>
<ellipse fill="#fdb462" stroke="black" cx="2699" cy="-256" rx="58.53" ry="18"/>
<text text-anchor="middle" x="2699" y="-251.8" font-family="Times,serif" font-size="14.00">TagsService</text>
</g>
<!-- TagsService&#45;&gt;TagsModule -->
<g id="edge27" class="edge">
<title>TagsService&#45;&gt;TagsModule</title>
<path fill="none" stroke="black" d="M2699,-237.97C2699,-217.23 2699,-186 2699,-186 2699,-186 1600.4,-186 1600.4,-186"/>
<polygon fill="black" stroke="black" points="1600.4,-182.5 1590.4,-186 1600.4,-189.5 1600.4,-182.5"/>
</g>
<!-- UploadToAwsProvider -->
<g id="node25" class="node">
<title>UploadToAwsProvider</title>
<ellipse fill="#fdb462" stroke="black" cx="1685" cy="-104" rx="101.29" ry="18"/>
<text text-anchor="middle" x="1685" y="-99.8" font-family="Times,serif" font-size="14.00">UploadToAwsProvider</text>
</g>
<!-- UploadToAwsProvider&#45;&gt;UploadsModule -->
<g id="edge28" class="edge">
<title>UploadToAwsProvider&#45;&gt;UploadsModule</title>
<path fill="none" stroke="black" d="M1610.08,-116.1C1610.08,-130.9 1610.08,-154 1610.08,-154 1610.08,-154 1049.05,-154 1049.05,-154 1049.05,-154 1049.05,-154.79 1049.05,-154.79"/>
<polygon fill="black" stroke="black" points="1045.55,-151.94 1049.05,-161.94 1052.55,-151.94 1045.55,-151.94"/>
</g>
<!-- UploadsService -->
<g id="node26" class="node">
<title>UploadsService</title>
<ellipse fill="#fdb462" stroke="black" cx="1876" cy="-104" rx="72.35" ry="18"/>
<text text-anchor="middle" x="1876" y="-99.8" font-family="Times,serif" font-size="14.00">UploadsService</text>
</g>
<!-- UploadsService&#45;&gt;UploadsModule -->
<g id="edge29" class="edge">
<title>UploadsService&#45;&gt;UploadsModule</title>
<path fill="none" stroke="black" d="M1830.89,-118.19C1830.89,-134.19 1830.89,-158 1830.89,-158 1830.89,-158 1071.58,-158 1071.58,-158 1071.58,-158 1071.58,-158.38 1071.58,-158.38"/>
<polygon fill="black" stroke="black" points="1068.08,-151.83 1071.58,-161.83 1075.08,-151.83 1068.08,-151.83"/>
</g>
<!-- CreateUserProvider -->
<g id="node28" class="node">
<title>CreateUserProvider</title>
<ellipse fill="#fdb462" stroke="black" cx="1338" cy="-104" rx="87.94" ry="18"/>
<text text-anchor="middle" x="1338" y="-99.8" font-family="Times,serif" font-size="14.00">CreateUserProvider</text>
</g>
<!-- CreateUserProvider&#45;&gt;UsersModule -->
<g id="edge31" class="edge">
<title>CreateUserProvider&#45;&gt;UsersModule</title>
<path fill="none" stroke="black" d="M1299.3,-120.2C1299.3,-131.66 1299.3,-145 1299.3,-145 1299.3,-145 951.43,-145 951.43,-145 951.43,-145 951.43,-151.68 951.43,-151.68"/>
<polygon fill="black" stroke="black" points="947.93,-151.68 951.43,-161.68 954.93,-151.68 947.93,-151.68"/>
</g>
<!-- UsersCreateManyProvider -->
<g id="node29" class="node">
<title>UsersCreateManyProvider</title>
<ellipse fill="#fdb462" stroke="black" cx="1118" cy="-104" rx="114" ry="18"/>
<text text-anchor="middle" x="1118" y="-99.8" font-family="Times,serif" font-size="14.00">UsersCreateManyProvider</text>
</g>
<!-- UsersCreateManyProvider&#45;&gt;UsersModule -->
<g id="edge32" class="edge">
<title>UsersCreateManyProvider&#45;&gt;UsersModule</title>
<path fill="none" stroke="black" d="M1026.53,-115C1026.53,-125.58 1026.53,-140 1026.53,-140 1026.53,-140 933.14,-140 933.14,-140 933.14,-140 933.14,-151.87 933.14,-151.87"/>
<polygon fill="black" stroke="black" points="929.64,-151.87 933.14,-161.87 936.64,-151.87 929.64,-151.87"/>
</g>
<!-- UsersService -->
<g id="node30" class="node">
<title>UsersService</title>
<ellipse fill="#fdb462" stroke="black" cx="924" cy="-104" rx="61.95" ry="18"/>
<text text-anchor="middle" x="924" y="-99.8" font-family="Times,serif" font-size="14.00">UsersService</text>
</g>
<!-- UsersService&#45;&gt;UsersModule -->
<g id="edge33" class="edge">
<title>UsersService&#45;&gt;UsersModule</title>
<path fill="none" stroke="black" d="M896.57,-120.49C896.57,-120.49 896.57,-151.95 896.57,-151.95"/>
<polygon fill="black" stroke="black" points="893.07,-151.95 896.57,-161.95 900.07,-151.95 893.07,-151.95"/>
</g>
</g>
</svg>
